<svg width="93" height="39" viewBox="0 0 93 39" fill="none" xmlns="http://www.w3.org/2000/svg">
    <path d="M7.976 31L0.744 13.784H5.896L11.912 28.6H9.352L15.592 13.784H20.392L13.128 31H7.976ZM22.429 31V13.784H27.421V31H22.429ZM24.925 11.384C24.0077 11.384 23.261 11.1173 22.685 10.584C22.109 10.0507 21.821 9.38933 21.821 8.6C21.821 7.81067 22.109 7.14933 22.685 6.616C23.261 6.08267 24.0077 5.816 24.925 5.816C25.8423 5.816 26.589 6.072 27.165 6.584C27.741 7.07467 28.029 7.71467 28.029 8.504C28.029 9.336 27.741 10.0293 27.165 10.584C26.6103 11.1173 25.8637 11.384 24.925 11.384ZM42.614 31V27.64L42.294 26.904V20.888C42.294 19.8213 41.9633 18.9893 41.302 18.392C40.662 17.7947 39.67 17.496 38.326 17.496C37.4087 17.496 36.502 17.6453 35.606 17.944C34.7313 18.2213 33.9847 18.6053 33.366 19.096L31.574 15.608C32.5127 14.9467 33.6433 14.4347 34.966 14.072C36.2887 13.7093 37.6327 13.528 38.998 13.528C41.622 13.528 43.6593 14.1467 45.11 15.384C46.5607 16.6213 47.286 18.552 47.286 21.176V31H42.614ZM37.366 31.256C36.022 31.256 34.87 31.032 33.91 30.584C32.95 30.1147 32.214 29.4853 31.702 28.696C31.19 27.9067 30.934 27.0213 30.934 26.04C30.934 25.016 31.1793 24.12 31.67 23.352C32.182 22.584 32.982 21.9867 34.07 21.56C35.158 21.112 36.5767 20.888 38.326 20.888H42.902V23.8H38.87C37.6967 23.8 36.886 23.992 36.438 24.376C36.0113 24.76 35.798 25.24 35.798 25.816C35.798 26.456 36.0433 26.968 36.534 27.352C37.046 27.7147 37.7393 27.896 38.614 27.896C39.446 27.896 40.1927 27.704 40.854 27.32C41.5153 26.9147 41.9953 26.328 42.294 25.56L43.062 27.864C42.6993 28.9733 42.038 29.816 41.078 30.392C40.118 30.968 38.8807 31.256 37.366 31.256ZM50.524 37.464C49.756 37.464 49.02 37.3787 48.316 37.208C47.612 37.0587 47.0147 36.824 46.524 36.504L47.868 32.888C48.444 33.2933 49.148 33.496 49.98 33.496C50.5987 33.496 51.0893 33.2827 51.452 32.856C51.836 32.4507 52.028 31.832 52.028 31V13.784H57.02V30.968C57.02 32.952 56.4547 34.5307 55.324 35.704C54.1933 36.8773 52.5933 37.464 50.524 37.464ZM54.524 11.384C53.6067 11.384 52.86 11.1173 52.284 10.584C51.708 10.0507 51.42 9.38933 51.42 8.6C51.42 7.81067 51.708 7.14933 52.284 6.616C52.86 6.08267 53.6067 5.816 54.524 5.816C55.4413 5.816 56.188 6.072 56.764 6.584C57.34 7.07467 57.628 7.71467 57.628 8.504C57.628 9.336 57.34 10.0293 56.764 10.584C56.2093 11.1173 55.4627 11.384 54.524 11.384ZM72.1765 31V27.64L71.8565 26.904V20.888C71.8565 19.8213 71.5258 18.9893 70.8645 18.392C70.2245 17.7947 69.2325 17.496 67.8885 17.496C66.9712 17.496 66.0645 17.6453 65.1685 17.944C64.2938 18.2213 63.5472 18.6053 62.9285 19.096L61.1365 15.608C62.0752 14.9467 63.2058 14.4347 64.5285 14.072C65.8512 13.7093 67.1952 13.528 68.5605 13.528C71.1845 13.528 73.2218 14.1467 74.6725 15.384C76.1232 16.6213 76.8485 18.552 76.8485 21.176V31H72.1765ZM66.9285 31.256C65.5845 31.256 64.4325 31.032 63.4725 30.584C62.5125 30.1147 61.7765 29.4853 61.2645 28.696C60.7525 27.9067 60.4965 27.0213 60.4965 26.04C60.4965 25.016 60.7418 24.12 61.2325 23.352C61.7445 22.584 62.5445 21.9867 63.6325 21.56C64.7205 21.112 66.1392 20.888 67.8885 20.888H72.4645V23.8H68.4325C67.2592 23.8 66.4485 23.992 66.0005 24.376C65.5738 24.76 65.3605 25.24 65.3605 25.816C65.3605 26.456 65.6058 26.968 66.0965 27.352C66.6085 27.7147 67.3018 27.896 68.1765 27.896C69.0085 27.896 69.7552 27.704 70.4165 27.32C71.0778 26.9147 71.5578 26.328 71.8565 25.56L72.6245 27.864C72.2618 28.9733 71.6005 29.816 70.6405 30.392C69.6805 30.968 68.4432 31.256 66.9285 31.256ZM81.3665 31V13.784H86.1345V18.648L85.4625 17.24C85.9745 16.024 86.7958 15.1067 87.9265 14.488C89.0572 13.848 90.4332 13.528 92.0545 13.528V18.136C91.8412 18.1147 91.6492 18.104 91.4785 18.104C91.3078 18.0827 91.1265 18.072 90.9345 18.072C89.5692 18.072 88.4598 18.4667 87.6065 19.256C86.7745 20.024 86.3585 21.2293 86.3585 22.872V31H81.3665Z" fill="#3075C6" />
</svg>
